<?xml version="1.0" encoding="utf-8"?>
<!-- Generator: Adobe Illustrator 23.0.1, SVG Export Plug-In . SVG Version: 6.00 Build 0)  -->
<svg version="1.1" xmlns="http://www.w3.org/2000/svg" xmlns:xlink="http://www.w3.org/1999/xlink" x="0px" y="0px"
	 viewBox="0 0 1200 1800" style="enable-background:new 0 0 1200 1800;" xml:space="preserve">
<style type="text/css">
	.st0{fill:#901F23;}
	.st1{fill:#AC1F23;}
	.st2{fill:#8F0809;}
	.st3{fill:#FFAA00;}
	.st4{fill:#D88313;}
	.st5{fill:#FC061C;}
	.st6{fill:#FFFFFF;}
	.st7{fill:none;stroke:#000000;stroke-width:5;stroke-linecap:round;stroke-linejoin:round;stroke-miterlimit:10;}
	.st8{fill:none;}
</style>
<g id="图层_1">
	<path class="st0" d="M262,1003c12.86-15.55,28.13-3.88,28.13-3.88s25.24,17.03,34.56,39.45c9.32,22.42,13.35,32.45,13.35,32.45
		l-17.83,28.54c0,0-37.27,53.77,17.83,75.5c55.1,21.74,131.44,20.13,184.66-1.62s155.91-66.55,155.91-66.55l-113.24,94.54
		c0,0-55.41,92.14-83.38,113.85c-27.97,21.72-136.35,64.6-136.35,64.6S279.52,1410.17,220,1397c-56-13-139.35-86.1-98-214
		c36-101,122.36-166.54,122.36-166.54S253.83,1012.88,262,1003z"/>
	<path class="st0" d="M605.88,1139.1c0,0,198.94-100.36,304.87-38.45c105.93,61.9,101.15,130.13,101.15,130.13
		s11.15,78.09-8.87,146.66C983,1446,932,1544,932,1544s-4,15-94-13s-95-35-95-35s41-10,57-80c8-55-17-144-108-168
		c-40-12-114,16-114,16s-63,27-96.03,51.28c-0.97-10.28-6.72-93.49-6.72-93.49L605.88,1139.1z"/>
	<path class="st0" d="M565.36,524.63l18.11,50.22l38.51-5.24C621.98,569.62,607.13,518.42,565.36,524.63z"/>
	<path class="st1" d="M794.48,662.61c0,0,144.52,61.39,66.99,155.08C847,835,826,837,826,837l63.11,14.2c0,0,24.89,14.8,34.54,62.93
		c6.15,59.55-19.78,118.29-56.71,133.44c-36.93,15.15-89.84,16.03-89.84,16.03l-74.09-61.2c0,0-4.15-20.51-3.77-22.71
		c0.38-2.2,38.01-9.26,38.01-9.26l30.3,30.78c0,0,56.97,18.75,73.86,4.86c16.89-13.89,40.73-29.63,27.27-85.17
		c-13.46-55.55-75.59-50.4-75.59-50.4l-13.22-20.41L470.62,962.38l-27.05,17.75l-35.87-0.43L388,948c0,0-25-13-31-21
		c-2-11,14-27,14-27s-28-10-19.98-36.51c1.18-22.24-1.96-28.34-1.96-28.34S336,780,367,735c-6-12-17.69-60.35-0.78-79.79
		C365,616,359,549,444.24,552.25c31.94,1.79,31.94,1.79,31.94,1.79s14.62-84.34,84.57-77.69c68.41,5.73,93.92,43.77,100.77,94.64
		c21.04,10.68,21.04,10.68,21.04,10.68s16.95-26.24,70.89-12.44C758.26,571.19,780,546,780,546l18,23l35,48L794.48,662.61z"/>
	<polygon class="st1" points="601.58,814.34 785.25,853.33 736.4,965.46 678.6,977.97 556.73,977.97 508.78,950.88 	"/>
	<path class="st1" d="M631.55,984.35c0,0,7.61,39.91-17.39,51.07c-24.16,18.58-48.81,10.06-48.81,10.06S519,1038,528,978
		c-24.23-16.2-25.82,21.12-25.82,21.12l30.71,64.48c0,0,70.28,14.55,73.52,14.29c3.25-0.26,53.51-39.2,53.51-39.2l18.67-60.73
		L631.55,984.35z"/>
	<path class="st1" d="M284,965l45.84-44.09l53.3,19.07v55.25l-37.51,31.84C345.63,1027.08,301.52,968.82,284,965z"/>
	<path class="st1" d="M462.23,547.11c0,0-16.23-50.11-91.06-67.45C336,476,299.55,490.14,320.2,556.47
		c15.57,28.75,47.2,53.59,47.2,53.59l-0.48,53.46c0,0-80.71-18.54-105.67-104.62c-23.42-84.23,20.29-127.21,102.61-121
		C457,440,484.33,524.63,484.33,524.63l-17.36,36.98L462.23,547.11z"/>
	<path class="st1" d="M355.19,689.33c0,0-105.31-14.76-107.5,95.45c52.4,62.06,99.28,76.82,100.41,72.97
		c1.12-3.85-3.26-30.29-3.26-30.29s1.84,2.99-15-6.24s-47.54-29.92-19.03-86.86c16.2-22.68,50.32-11.29,50.32-11.29L355.19,689.33z"
		/>
	<path class="st2" d="M396.82-64"/>
	<path class="st3" d="M779.87,545.96l53.64,69.06L844,596c0,0-14-40-28-49C806,540,795.62,532.07,779.87,545.96z"/>
	<path class="st3" d="M283.61,964.46c0,0,65.85,43.38,80.14,94.46c-8.72,8-23.65,21.6-23.65,21.6S325,997,263,994
		c1-3-2.95-5.83,0-10C269.37,975,283.61,964.46,283.61,964.46z"/>
	<path class="st4" d="M338.03,1006.09l-24.57,14.21c9.22,19.32,18.48,26.88,27.65,61.24l23.65-21.6L338.03,1006.09z"/>
	<path class="st4" d="M824,554c0,0-7,14-25.67,17C799,573,837,618,837,618l7-27L824,554z"/>
	<g>
		<g>
			<path class="st5" d="M508.76,601.49c3.89-4.1,6.7-8.63,11.58-11.77c4.61-2.98,9.58-4.33,15.04-4.31c4.35,0.01,4.34-6.63,0-6.75
				c-12.24-0.33-27.27,8.02-30.88,20.35C503.78,601.43,507,603.34,508.76,601.49L508.76,601.49z"/>
		</g>
	</g>
	<g>
		<g>
			<path class="st5" d="M588.23,609.98c2.16-10.7,9.32-17.3,19.97-19.13c10.65-1.83,21.86-1.41,32.63-2.15
				c3.29-0.23,3.33-5.35,0-5.16c-7.51,0.44-15.02,1.04-22.52,1.6c-5.92,0.44-12.04,0.82-17.61,3.08
				c-8.7,3.53-15.22,12.23-13.92,21.75C586.88,610.71,588.09,610.67,588.23,609.98L588.23,609.98z"/>
		</g>
	</g>
	<g>
		<g>
			<path class="st5" d="M732.93,579.19c-9.61-5.04-28.34-4.79-35.14,5.19c-3.78,5.55-4.29,13.31-5.17,19.76
				c-1.14,8.34-1.67,16.73-1.65,25.15c0.01,3.47,5.43,3.47,5.39,0c-0.15-12.3,0.04-25.75,3.44-37.66
				c3.8-13.29,21.79-11.59,32.65-10.64C733.4,581.06,733.75,579.62,732.93,579.19L732.93,579.19z"/>
		</g>
	</g>
	<g>
		<g>
			<path class="st5" d="M691.24,722.36c2.95-3.26,3.29-8.52,5.21-12.47c1.4-2.89,2.88-5.85,6.26-6.66c2.89-0.69,6.19-0.63,9.13-0.79
				c12.16-0.7,24.37-0.34,36.49,0.83c3.1,0.3,3.06-4.51,0-4.83c-14.7-1.51-30.46-2.29-45.1,0.19c-4.91,0.83-7.53,3.28-9.75,7.62
				c-2.19,4.29-5.6,11-3.69,15.74C690.01,722.54,690.76,722.89,691.24,722.36L691.24,722.36z"/>
		</g>
	</g>
	<g>
		<g>
			<path class="st5" d="M697.41,785.29c1.28,6.18,2.01,12.51,2.44,18.8c0.31,4.51-1,11.15,1.68,14.91c0.78,1.09,2.13,1.06,2.91,0
				c2.96-4.02,1.05-11.52,0.46-16.19c-0.79-6.31-2.19-12.4-3.84-18.53C700.43,781.9,696.92,782.91,697.41,785.29L697.41,785.29z"/>
		</g>
	</g>
	<g>
		<g>
			<path class="st5" d="M698.6,784c2.6,2.24,7.81,0.61,11.13,0.93c6.22,0.6,12.44,1.71,18.58,2.83c5.22,0.95,10.52,1.84,15.64,3.24
				c2.9,0.79,5.68,1.82,8.3,3.31c2.04,1.16,3.14,2.27,5.56,2c0.84-0.09,1.7-0.68,1.64-1.64c-0.26-4.48-5.19-6.35-8.91-7.85
				c-5.39-2.18-11.18-3.21-16.88-4.22c-5.88-1.05-11.79-1.93-17.71-2.69c-5.62-0.72-11.04-1.58-16.38,0.7
				c-0.8,0.34-1.13,1.31-1.2,2.09C698.34,783.13,698.22,783.68,698.6,784L698.6,784z"/>
		</g>
	</g>
	<g>
		<g>
			<path class="st5" d="M458.72,698.4c1.79-3.63,2.92-7.56,4.26-11.37c0.69-1.99,1.41-5.06,3-6.56c1.97-1.88,5.61-2.22,8.14-2.81
				c8.06-1.88,16.16-3.52,24.34-4.75c8.55-1.29,17.16-2.15,25.79-2.67c8.82-0.53,17.74,0.01,26.53-0.62c3.07-0.22,2.95-4.32,0-4.69
				c-9.84-1.24-20.46-0.27-30.31,0.53c-9.37,0.77-18.7,1.99-27.96,3.65c-4.69,0.84-9.36,1.8-14,2.87c-4.1,0.95-8.77,1.63-12.57,3.51
				c-3,1.49-4.49,4.03-5.59,7.09c-1.69,4.7-3.43,9.76-4.31,14.68C455.74,698.79,457.92,700.01,458.72,698.4L458.72,698.4z"/>
		</g>
	</g>
	<g>
		<g>
			<path class="st5" d="M481.08,551.81c2.94-11.89,6.05-22.7,13.36-32.8c7.36-10.18,17.59-18.24,28.96-23.5
				c23.76-10.99,51.79-11.13,75.66-0.47c3.71,1.66,6.91-3.89,3.19-5.46c-25.84-10.93-54.98-10.34-80.37,1.72
				c-11.85,5.63-22.38,13.7-30.26,24.24c-7.43,9.93-13.75,23.19-14,35.82C477.59,553.31,480.6,553.74,481.08,551.81L481.08,551.81z"
				/>
		</g>
	</g>
	<g>
		<g>
			<path class="st5" d="M274.64,551.97c-3.16-15.96-7.08-33.81-1.28-49.61c5.06-13.78,16.1-24.41,28.21-32.23
				c22.99-14.84,51.16-18.94,77.81-13.7c7.34,1.44,14.62,3.49,21.57,6.24c7.33,2.9,13.94,7.4,21.24,10.23
				c1.84,0.71,3.5-2.12,1.96-3.37c-5.27-4.28-12.21-6.86-18.49-9.32c-6.99-2.74-14.16-5.06-21.49-6.7
				c-13.97-3.12-28.46-3.95-42.66-2c-27.42,3.76-58.12,19.44-70.12,45.69c-8.25,18.05-4.04,37.17,1.16,55.34
				C272.95,553.89,274.91,553.32,274.64,551.97L274.64,551.97z"/>
		</g>
	</g>
	<g>
		<g>
			<path class="st5" d="M377.61,607.07c-0.27-4.52,2.67-8.95,4.76-12.77c1.82-3.32,3.71-6.61,5.81-9.77
				c4.37-6.57,9.76-12.94,17.07-16.31c7.9-3.64,16.84-3.61,25.36-3.7c9.25-0.09,18.6,0.13,27.82-0.45c3.14-0.2,3.19-4.84,0-4.92
				c-10.89-0.29-21.99,0.19-32.87,0.75c-9.05,0.46-18.29,1.81-26.02,6.87c-6.77,4.44-11.79,11.04-15.92,17.9
				c-3.92,6.5-10.13,14.79-6.98,22.53C376.83,607.67,377.65,607.67,377.61,607.07L377.61,607.07z"/>
		</g>
	</g>
	<g>
		<g>
			<path class="st5" d="M258.54,774.18c2.53-16.21,7.3-30.65,19.38-42.39c12.56-12.21,28.55-16.72,43.99-23.86
				c2.23-1.03,0.62-4.42-1.63-3.86c-17.05,4.27-35.2,12.96-47.37,25.85c-10.67,11.3-19.47,28.32-16.41,44.25
				C256.69,775.17,258.38,775.21,258.54,774.18L258.54,774.18z"/>
		</g>
	</g>
	<g>
		<g>
			<path class="st5" d="M373.21,694.35c2.49-9.48,2.53-21.21,9.95-28.55c8.55-8.46,22.33-9.29,32.15-15.49
				c1.29-0.81,0.9-3.26-0.84-3.1c-6.12,0.58-12.36,3.78-17.98,6.2c-5.85,2.52-12.54,4.93-17,9.66c-7.36,7.8-9.24,20.72-8.55,30.97
				C371.04,695.29,372.87,695.66,373.21,694.35L373.21,694.35z"/>
		</g>
	</g>
	<g>
		<g>
			<path class="st5" d="M458.62,833.18c-0.69-10.26,1.25-20.63,3.57-30.58c1.97-8.46,3.64-17.3,7.19-25.27
				c3.52-7.9,9.31-14.01,17.11-17.77c4.3-2.07,8.95-3.29,13.64-4.11c4.63-0.81,9.55-0.69,14.04-2.13c1.55-0.5,1.92-3.25,0-3.53
				c-8.89-1.3-19.87,1.24-28.03,4.74c-8.54,3.67-15.56,9.95-19.79,18.26c-4.52,8.88-6.51,18.92-8.47,28.61
				c-2.19,10.8-3.48,21.15-1.84,32.11C456.26,834.98,458.72,834.65,458.62,833.18L458.62,833.18z"/>
		</g>
	</g>
	<g>
		<g>
			<path class="st5" d="M546.03,932.29c1.5-4.09,1.48-8.64,2.24-12.91c0.77-4.33,1.86-8.61,3.08-12.83
				c2.19-7.63,3.97-19.38,11.01-24.06c6.62-4.4,16.64-4.29,24.26-4.6c4.55-0.19,9.05-0.14,13.59,0.24
				c4.42,0.36,9.16,1.49,13.55,0.94c2.51-0.32,2.94-3.35,0.59-4.33c-4.52-1.89-10.24-1.7-15.1-1.7c-5.5,0-11,0.04-16.5,0.46
				c-7.9,0.61-17.48,1.04-23.95,6.2c-6.62,5.28-8.34,15.37-10.61,23.05c-2.51,8.51-6.93,20.71-4.14,29.55
				C544.36,933.3,545.68,933.23,546.03,932.29L546.03,932.29z"/>
		</g>
	</g>
	<g>
		<g>
			<path class="st5" d="M608.49,663.13c-4.48,6.5-7.6,14.08-10.32,21.46c-2.73,7.42-5.9,15.54-6.6,23.45
				c-0.26,2.93,3.88,3.02,4.79,0.65c2.79-7.29,4.02-15.36,6.37-22.84c2.32-7.38,5.19-14.65,7.17-22.13
				C610.14,662.85,608.98,662.43,608.49,663.13L608.49,663.13z"/>
		</g>
	</g>
	<g>
		<g>
			<path class="st5" d="M597.95,687.67c3.11-8.18,4.93-22.64,14.61-25.5c4.45-1.31,9.69-0.93,14.28-0.99
				c4.61-0.06,9.91,0.89,14.25-0.85c1-0.4,1.59-2.04,0.34-2.61c-5.43-2.48-12.71-1.18-18.55-0.93c-4.8,0.21-10.18,0.17-14.54,2.5
				c-4.16,2.23-6.1,5.92-7.55,10.22c-1.99,5.88-3.64,11.77-4.17,17.98C596.55,688.3,597.7,688.33,597.95,687.67L597.95,687.67z"/>
		</g>
	</g>
	<g>
		<g>
			<path class="st5" d="M570.71,808.6c0.21-3.87,0.81-7.76,1.75-11.51c0.42-1.7,0.88-3.34,1.46-4.99c0.82-2.34,0.79-3.38,3.66-3.89
				c7.13-1.29,14.93-0.05,22.13-0.16c14.15-0.2,29.38-2.38,42.48,4.28c3.71,1.89,6.99-3.74,3.26-5.59
				c-7.83-3.89-16.19-5.23-24.87-5.34c-9.45-0.11-19.18,0.22-28.57,1.27c-4.81,0.54-9.58,0.84-14.43,0.85
				c-2.91,0.01-5.16-0.2-7.03,2.35c-4.53,6.21-4.22,16.04-2.83,23.12C568.07,810.76,570.62,810.24,570.71,808.6L570.71,808.6z"/>
		</g>
	</g>
	<path class="st0" d="M762.19,570.32c0,0-17.68-2.75-12.3,47.09c2.31,23.91-1.98,45.21-27.9,45.21c-25.92,0-37.67-3.71-39.41-20.37
		c1.06,35.74,4.26,47.22,4.26,47.22l81.5,4.63l6.45-31.48l-2.6-58.33L762.19,570.32z"/>
	<path class="st0" d="M770,586c0,0,29.78-6.81,26.68-15.38c10.79,9.31,38.83,45.41,38.83,45.41L810,643l-28.13,29.75l-4.56-35.21
		c0,0,32.3-0.22,26.26-35.34l-12.13-10.28L770,586z"/>
	<path class="st0" d="M801.49,724.63c0,0-4.06-23.45,4.08-30.54c8.13-7.1,58.47,24.82,57.45,63.49c0,0,1.95,56.56-64.69,67.05
		c3.17-6.28-3.64-22.86-3.64-22.86L781,800l-1.13,50.1l50.09-13.24l43.2-30.13c0,0,10.93-27.34,12.84-37.73c3.4-18.45-5-39-5-39
		l-21.17-35.91L824,670l-31.48-7.39l-17.21,9.03l-4.01,23.77L795,725L801.49,724.63z"/>
	<path class="st0" d="M659.93,576.51c0,0,3.08,28.74,0,36.59c-3.08,7.85-16.92,4.3-16.92,4.3s-54.97-8.23-64.58,14.79
		c1.23,11.52,15.38,15.04,15.38,15.04l70.38,4.49l16.59,3.49L683,578L659.93,576.51z"/>
	<path class="st0" d="M572.26,752.78c0,0,60.76,14.45,76.91-38.78c16.15-52.77,12.3-62.45,12.3-62.45l19.31,6.9l6.06,41.66
		l-24.14,66.83L650,781l-71.57-3.5l-13.07-2.16L572.26,752.78z"/>
	<path class="st0" d="M571.12,649.19c0,0-2.69,34.25-11.15,58.33c0,0-3.08,8.79-17.3,8.74c-17.7-0.07-46.13-10.01-95.72,6.83
		c3.08,9.9-2.47,16.07,8.79,18c11.26,1.92,112.65,2.29,112.65,2.29s9.38,1.47,13.49-15.94c4.11-17.42,16.53-78.23,16.53-78.23
		H571.12z"/>
	<path class="st0" d="M561.13,571c0,0-15.76,27.27-12.69,44.86c2.31,10.65-11.15,10.18-11.15,10.18s-33.19-8.33-50.62,0
		c-17.43,8.33,0,23.14,0,23.14l91.75-2.25l-6.92-19.97l11.96-52.11L561.13,571z"/>
	<path class="st0" d="M761,693c0,0,13.66,12.66,10.3,37.2c-2.58,10.18-10.27,6.48-10.27,6.48s-59.53-17.13-82.43,4.16
		c-10.06,16.02-13.67,25.92-13.67,25.92s62.31-3.05,84.19,5.09c21.88,8.14,25.68,7.41,25.68,7.41s8.65-6.69,16.21-20.27
		s2.09-35.92,2.09-35.92s-6.35-14.56-13.22-21.82C773,694,761,693,761,693z"/>
	<path class="st0" d="M690.35,843.14c0,0,13.4,16.66,41.78,4.05c23.51-19.45,36.33-36.54,37.87-67.19
		c16.53,16.1,15.25,35.37,15.25,35.37l-18.07,50.87l-36.14,24.86l-42.2-1.86l-15.59-3.81L690.35,843.14z"/>
	<path class="st0" d="M655.16,782.61c4.84,1.39,7.46,25.81,3.23,46.42c-2.31,11.81-15.76,6.12-15.76,6.12S574.61,825.1,555,845
		c-3.83,18.53-2,18-2,18l96.55,6.61l31.23,6.12c0,0,9.69-7.44,12.96-40.59c3.27-33.15-8.59-32.77-20.66-55.96
		S650.32,781.21,655.16,782.61z"/>
	<path class="st0" d="M538.45,741.77l-20.37,85.69c0,0-11.18,48.46-73.83,38.78c5.09,21.36,9.24,21.96,11.5,24.86
		c6.26,6.9,35.6,8.7,35.6,8.7l47.1-8.7l14.27-30.29l12.64-119.05H538.45z"/>
	<path class="st0" d="M531.2,956.56c0,0,33.77,13.42,64.91,6.48s40.75-50.92,40.75-50.92s5.39-19.16,6.16-43.14
		C658.8,871.42,666,874,666,874l-17.09,74.34l-26.94,42.93l-43.55,3.96c0,0-35.5-7.53-42.97-10.88
		C528,981,531.2,956.56,531.2,956.56z"/>
	<path class="st0" d="M468.41,911.19c0,0,28.31,18.52,67.05-1.85c-1.78-10.83-12.78-15.33-12.78-15.33l-55.72,5.79l1.44,14.34
		V911.19z"/>
	<path class="st0" d="M384.64,947.99c0,0,35.82,1.64,40.61-25.22C410.8,911.29,388,898,388,898l31.44-8.08
		c0,0,28.95,5.99,38.75,16.54C468,917,464,915,464,915l-5.81,30.91l-3.13,29.21l-21.18,9.23h-26.66l-22.58-34.28V947.99z"/>
	<path class="st0" d="M377.37,941.45c0,0,12.7,41.48-41.37,65.55c9.44,18.23,28.75,52.93,28.75,52.93l49.14-49.21l-7.61-38.09
		L377.37,941.45z"/>
	<path class="st0" d="M522.69,1006.09c0,0-11.56,32.87,23.05,48.6s66.52,5.09,80.36-11.57c13.84-16.66,18.45-45.18,19.22-48.51
		c0.77-3.33-5.75-5.84-11.53-4.72c-5.79,1.12-2.24-11.71-2.24-11.71L678.6,976l-8.68,51.08c0,0-22.6,31.42-33.26,38.67
		c-10.66,7.25-15.62,9.37-33.14,13.31c-17.52,3.94-44.31,0-44.31,0s-18.73-0.68-30.97-11.87c-12.24-11.19-26.07-35.13-26.07-35.13
		l-9.24-47.71l2.84-13.91l27.73,7.23L522.69,1006.09z"/>
	<path class="st0" d="M650,945c0,0,40.68,18.66,87.97-12.9c24.22-16.03,21.14-32.3,21.14-32.3s-1.54-5.82-10.76-0.45
		c-9.23,5.36-51.47,26.8-88.35,3.65c-1.01-17.64,2-22,2-22s17.27,7.83,47.13,8.92c29.87,1.08,44.33-12.15,44.33-12.15l26.4-27.67
		l13.22,31L791,910l-9,24l-19,22l-26.6,12.77l-46.05,10.93l-56.56-3.24L650,945z"/>
	<path class="st0" d="M520.76,898.06c0,0,3.08,45.07-22.3,45.99c-25.37,0.93-33.12-10.29-34.82-15.1
		c-8.64,23.04,6.97,33.42,6.97,33.42l42.9,15.79l17.68-2.26l-2.58-38.78l4.27-43.12L520.76,898.06z"/>
	<path class="st0" d="M745,981c0,0-18.95,15.36-12.03,27.4c6.92,12.04,34.77,27.77,68.6,28.7c33.83,0.93,58.75-18.93,63.26-23.65
		c4.51-4.72,93.42-89.76-1.82-147.21c-11.26-5.51-28.54,5.12-25.01,11.76c-12-9-50.08-9.03-50.08-9.03L781,849c0,0,32-12,53-12
		s58.89,15.4,58.89,15.4S915,871,921,907s-5.33,81.08-5.33,81.08s-15.45,35.54-36.06,50.73c-20.61,15.19-51.66,24.41-51.66,24.41
		l-26.38,3.4L761,1058l-35.73-24.21l-24.6-34.67l-6.94-22.11L735,970L745,981z"/>
	<path class="st0" d="M605.88,487.02c0,0,18.72,27.93,22.35,48.76c3.63,20.83-14.05,11.7-14.05,11.7l7.8,22.14l39.56,1.38
		l-14.29-48.62C647.24,522.37,622.19,489.18,605.88,487.02z"/>
	<path class="st0" d="M248.84,762.45c0,0,7.58,50.35,52.57,39.37c16.76,15.04,47.13,27.21,47.13,27.21L354,850l-3,21l-46-14
		c0,0-23.1-6.08-40.55-27.04S240.69,784.55,248.84,762.45z"/>
	<path class="st0" d="M426.53,818.35c0,0,7.36,46.25-24.17,51.26c-31.52,5.01-50.37,8.75-46.71,20.31
		c3.66,11.55,15.53,9.88,15.53,9.88l35.11-9.88c0,0,43.93-1.03,45,0c1.07,1.03-7.7-20.31-7.7-20.31l2.45-51.26H426.53z"/>
	<path class="st0" d="M356.58,689.46c0,0,22.25,32.05,46.7,33.62s23.24-16.81,23.24-16.81s1.2-58.37,20.43-69.07
		c19.34,3.7,35.02,9.73,35.02,9.73l-26.8,26.07l-11.87,43.24l16.63,34.14l-8.56,5.96l-37.48,1.22l-29.25-8.48l-17.68-14.73
		C366.96,734.36,346.95,706.13,356.58,689.46z"/>
	<path class="st0" d="M475.26,558.9c0,0-6.91,29.64-6.84,38.9c0.07,9.26-17.04,6.48-17.04,6.48s-61.38,0.62-84.41,32.25
		c-0.74,18.67,9,12.65,9,12.65l60.81-12.65l45.21,10.4c0,0,10.22-61.88,26.81-74.02C495.24,565,475.26,558.9,475.26,558.9z"/>
	<path class="st0" d="M329,573c0,0,6.85,46.32-56,15.2c10.39,16.95,17.29,23.18,36.15,43.99C328,653,363,662,363,662l3.92-11.89
		l0.48-40.05L329,573z"/>
	<path class="st0" d="M430.29,458.47c0,0,20.5,33.79,16.66,57.86c7.48,17.66,15.28,40.15,15.28,40.15l13.02,2.42L486,523
		C486,523,468.22,470.05,430.29,458.47z"/>
	<path class="st1" d="M202.77,1130.14c0,0-36.45,124.06,12.76,172.2c-22.3-13.89-43.19-36.37-44.08-92.58
		C180.64,1171.8,188.48,1159.77,202.77,1130.14z"/>
	<path class="st1" d="M251.66,1118.11c0,0-51.26,121.28,10.51,207.38C227.92,1309.95,181.74,1243.26,251.66,1118.11z"/>
	<path class="st1" d="M248.86,1175.06c0,0-2.62,105.85,92.31,159c-6.69,10.89-28.88,4.94-28.88,4.94l-46.2-6.1
		C266.09,1332.91,232.49,1317.15,248.86,1175.06z"/>
	<path class="st1" d="M310.34,1156.99c0,0-23.77,124.87,92.94,100.85c63.66-16.61,165.92-73.08,233.58-94.37
		c-116.87,34.25-193.56,74.99-253.72,62.95C324.74,1208.84,325.97,1184.77,310.34,1156.99z"/>
	<path class="st1" d="M273,1161.62c0,0,0.53,162.46,146.44,102.06c145.92-60.4,205.89-68.73,240.49-57.62
		c-54.68,12.47-92.18,23.68-92.18,23.68l-158.21,76.05C409.54,1305.79,255.87,1324.12,273,1161.62z"/>
	<path class="st1" d="M273,1245.37c0,0,43.25,77.77,120.9,62.28c-10.2,11.64-52.73,26.41-52.73,26.41S308.39,1324.58,273,1245.37z"
		/>
	<path class="st1" d="M324.68,1168.48c0,0,28.17,70.91,168.25,30.18c140.08-40.74,253.64-100.91,350.25-52.77
		s127.36,136.09,108.91,260.15c-20.76,65.73-10.76,49.99-10.76,49.99l29.22-49.99c0,0,33.83-194.42-90.73-275.89
		c-33.83-24.07-186.03-46.56-290.87,18.52c-57.42,21.29-70.49,26.4-70.49,26.4l-81.69,13.51l-75.64-5.23L324.68,1168.48z"/>
	<path class="st1" d="M501.22,1257.25c0,0,116.6-40.08,179.56-28.05c62.96,12.04,101.11,23.15,166.23,96.28
		c-13.66-28.7-27.31-49.27-27.31-49.27s-60.14-74.79-141.09-70.16s-138,33.87-138,33.87L501.22,1257.25z"/>
	<path class="st1" d="M565.36,1191.53"/>
	<path class="st1" d="M721.98,1094.39c5.17-1.22,276.1-21.88,283.02,255.61c46.62-128.07-66-236-66-236s-27-20-72-29
		S721.98,1094.39,721.98,1094.39z"/>
	<path class="st1" d="M942.1,1175.06c0,0,69.8,82.78,53.54,227.49l-16.63,3.48C979.01,1406.03,1000.53,1298.68,942.1,1175.06z"/>
	<path class="st1" d="M567.75,1198.32c0,0,218.95-110.04,322.84,0c33.83,41.99,61.51,113.28,33.06,216.97
		c-19.99-2.78-17.98,0-17.98,0s36.56-210.3-104.1-240.23C774.49,1169.95,726.99,1157.25,567.75,1198.32z"/>
	<path class="st1" d="M666.85,1206.06c0,0,282.76-67.58,207.89,209.23c-11.9-9.26-12.31-17.77-12.31-17.77
		S860.6,1215.32,666.85,1206.06z"/>
	<path class="st6" d="M795,725c0,0,42,0,43,41s-57,34-57,34l-11-20C770,780,798,777,795,725z"/>
	<path class="st6" d="M514,570c0,0,14-16,74,8c13-7,34-8,34-8s-6-46-57-45S514,570,514,570z"/>
</g>
<g id="图层_2">
	<path class="st7" d="M829.96,559.85c0,0,278.78-147.49,313.48-242.24c0,0,1.06-7.11,6.06-5.11c4,1,2.5,5.11,2.5,5.11
		c-39.98,187.33-325.83,241.58-325.83,241.58"/>
	<path class="st7" d="M1152,317.61"/>
	<path class="st7" d="M682.22,588.55c0,0-5.38,78.69,4.61,100.91c19.22,2.78,29.99-5.55,81.5,4.63c13.07-31.48,4.61-91.65,0-112.02
		c-4.61-20.37-56.13-16.66-56.13-16.66S679.15,567.25,682.22,588.55z"/>
	<path class="st7" d="M769.63,588.34c0,0,24.08-2.57,34.85,14.1c10.76,16.66,1.54,50.92-10,60.18c-11.53,9.26-20.62,9.14-20.62,9.14
		"/>
	<path class="st7" d="M753.47,569.25l26.4-23.28c0,0,17.24-12.67,33.06,0c15.82,12.67,23.41,27.88,27.47,37.85
		c4.06,9.97,6.08,25.11-11.32,39.92c-16.15,14.81-24.74,23.5-24.74,23.5"/>
	<line class="st7" x1="779.87" y1="545.96" x2="835.36" y2="617.4"/>
	<path class="st7" d="M768.34,694.09c0,0,32.29,11.11,25.37,53.7c-6.92,42.59-35.37,29.63-35.37,29.63s-52.28-20.37-96.88-7.41"/>
	<path class="st7" d="M769.63,779.19c0,0,28.97,30.63,0,82.47c-38.2,51.85-108.16,19.44-108.16,19.44"/>
	<path class="st7" d="M682.57,581.68c0,0-29.57-17.21-84.92-7.95c-29.99,5.55-23.07,49.07-23.07,49.07s-1.08,25.7,16.92,24.43
		c15.38-0.35,36.73-4.06,89.28,7.98"/>
	<path class="st7" d="M793.09,723.08c0,0,62.89,6.19,40.57,60.81c-13.81,23.15-47.64,18.62-53.79,14.86"/>
	<path class="st7" d="M789.44,871.38c0,0,58.07-18.54,82.68,59.23c9.39,31.48-6.9,69.92-42.16,80.11
		c-38.59,11.15-80.12-13.53-93.55-41.95"/>
	<path class="st7" d="M598.42,646.94c0,0-12.16,75.79-32.92,128.56"/>
	<path class="st7" d="M686.84,689.46c0,0-3.84,58.33-33.83,89.81"/>
	<g>
		<path d="M666.21,767.68c1.06,1.05,1.94,2.01,2.83,3.05c0.89,1.02,1.74,2.07,2.57,3.13c1.65,2.13,3.22,4.31,4.68,6.56
			c2.95,4.48,5.5,9.22,7.68,14.12c4.33,9.81,7.09,20.35,7.93,31.05c0.43,5.35,0.49,10.73-0.01,16.07l-0.15,2.01l-0.26,1.99
			l-0.54,3.98l-0.75,3.95c-0.13,0.66-0.24,1.32-0.38,1.97l-0.48,1.95c-2.52,10.4-6.43,20.41-11.35,29.84
			c-0.64,1.22-2.15,1.7-3.37,1.06c-1.22-0.64-1.7-2.15-1.06-3.37l0.01-0.02c4.83-9.08,8.66-18.69,11.09-28.64l0.47-1.86
			c0.14-0.62,0.25-1.25,0.37-1.88l0.73-3.77l0.52-3.8l0.25-1.9l0.15-1.91c0.49-5.08,0.44-10.21,0.05-15.29
			c-0.17-2.55-0.55-5.07-0.91-7.59l-0.73-3.75c-0.26-1.25-0.6-2.48-0.89-3.72c-1.28-4.93-2.98-9.76-5.06-14.42
			c-2.09-4.65-4.53-9.16-7.35-13.41c-1.4-2.13-2.92-4.18-4.49-6.18c-0.79-0.99-1.6-1.97-2.44-2.91c-0.82-0.94-1.72-1.89-2.53-2.68
			l-0.07-0.07c-0.99-0.96-1.01-2.54-0.05-3.53s2.54-1.01,3.53-0.05L666.21,767.68z"/>
	</g>
	<path class="st7" d="M822.93,839.55c0,0,100.28-19.99,100.72,98.02c0.44,116.65-107.74,136.81-143.78,126.84
		c-43.47-12.04-70.78-37.77-86.14-87.4"/>
	<path class="st7" d="M588.95,576.92c0,0-33.59-13.9-61.27-11.78c-27.68,2.11-37.67,37.3-37.67,37.3s-9.82,34.4-7.51,51.07"/>
	<path class="st7" d="M508.78,572.91c0,0-18.01-19.55-93.35-19.55c-13.84,0-34.6,11.77-43.83,40.41
		c-11.09,34.44-5.38,61.43-5.38,61.43"/>
	<path class="st7" d="M475.26,558.9c0.42,0.1,12.34-104.16,106.63-80.53c84.96,21.29,79.58,95.99,79.58,95.99"/>
	<g>
		<path d="M583.49,649.44c-27.36,0.86-54.84,1.85-81.95,4.43c-3.38,0.35-6.76,0.74-10.09,1.22c-3.34,0.47-6.66,1.03-9.84,1.77
			c-3.22,0.75-5.98,1.63-8.69,3.24c-2.69,1.54-5.21,3.47-7.5,5.71c-4.61,4.45-8.39,9.9-11.4,15.71c-2.99,5.82-5.26,12.09-6.42,18.45
			c-0.58,3.19-0.85,6.35-0.68,9.48c0.19,3.5,0.27,6.91,0.53,10.2c0.27,3.28,0.71,6.47,1.7,9.3c0.49,1.41,1.09,2.75,1.86,3.93
			c0.78,1.18,1.69,2.22,2.75,3.13c2.13,1.81,4.89,2.99,7.89,3.71c3,0.73,6.23,1,9.49,1.01c3.27,0,6.58-0.2,9.89-0.59l5.17-0.53
			c1.73-0.18,3.46-0.36,5.19-0.46c13.85-1.05,27.69-1.14,41.48-0.64c6.9,0.23,13.78,0.59,20.66,1.08
			c6.89,0.49,13.73,1.05,20.63,1.82c1.37,0.15,2.36,1.39,2.21,2.76c-0.15,1.36-1.36,2.34-2.72,2.21l-0.03,0
			c-6.76-0.64-13.61-1.1-20.42-1.48c-6.82-0.38-13.65-0.63-20.48-0.75c-13.65-0.24-27.31-0.05-40.83,1.09
			c-1.7,0.11-3.38,0.3-5.06,0.5l-5.07,0.56c-3.5,0.44-7.05,0.7-10.64,0.72c-3.59,0.01-7.26-0.24-10.94-1.09
			c-0.92-0.22-1.84-0.44-2.75-0.77c-0.92-0.27-1.82-0.66-2.72-1.04c-1.78-0.84-3.54-1.82-5.1-3.15c-1.56-1.31-2.94-2.85-4.05-4.55
			c-1.11-1.7-1.93-3.52-2.56-5.34c-1.27-3.67-1.74-7.34-2.06-10.89c-0.3-3.55-0.38-7.01-0.57-10.37c-0.22-3.73,0.09-7.45,0.74-11.01
			c0.63-3.58,1.59-7.06,2.77-10.45c1.18-3.39,2.59-6.69,4.23-9.88c3.28-6.37,7.39-12.38,12.65-17.5c2.61-2.56,5.57-4.86,8.83-6.74
			c0.8-0.49,1.67-0.89,2.51-1.32c0.88-0.37,1.72-0.81,2.65-1.1l1.37-0.48c0.45-0.15,0.89-0.25,1.34-0.38
			c0.89-0.26,1.78-0.48,2.65-0.66c3.51-0.79,6.97-1.35,10.43-1.81c3.46-0.48,6.91-0.85,10.36-1.19c6.89-0.67,13.78-1.16,20.66-1.56
			c6.88-0.38,13.77-0.63,20.64-0.85c13.76-0.43,27.5-0.58,41.28-0.44c1.38,0.01,2.49,1.14,2.48,2.52c-0.01,1.34-1.09,2.43-2.42,2.47
			L583.49,649.44z"/>
	</g>
	<path class="st7" d="M367.4,610.06c0,0-77.1-48.9-45.77-112.55c21.53-43.75,133.59-0.55,140.61,58.98"/>
	<path class="st7" d="M565.36,743.1c0,0-5.89,102.04-15.12,126.35c-9.23,24.31-20.37,26.77-41.45,28.01
		c-21.08,1.23-63.22,10.64-65.22-28.01s7.55-93.07,18.67-126.34"/>
	<path class="st7" d="M565.36,779.19c0,0,51.18-7.55,112.14,8.31"/>
	<path class="st7" d="M552.04,863.56c0,0,84.72-1.78,128.73,12.17"/>
	<path class="st7" d="M534.66,891.67c0,0-4.93,31.85-5.96,60.79c-1.03,28.94,6.69,33.88,23.34,36.96
		c16.64,3.09,60.53,13.96,76.19-5.55c41.69-51.98,30.27-112.37,30.27-112.37"/>
	<path class="st7" d="M621.98,569.62c0,0-9.21-46.18-56.62-44.99c-47.41,1.2-51.84,44.99-51.84,44.99"/>
	<path class="st7" d="M467.29,898.06l-5.05,27.78c0,0-10.41,27.16,13.02,39.5c23.43,12.34,53.24,10.15,53.24,10.15
		s-14.98,65.15,45.39,71.32c47.94,4.9,65.7-41.97,54.34-62.95"/>
	<path class="st7" d="M481.97,646.94c0,0-41.43-23.39-98.84,0c-16.91,8.27-31.04,17.59-25.26,62.46s46.22,51.52,100.32,46.96"/>
	<g>
		<path d="M485.35,525.07c-1.87-4.73-4.31-9.4-6.86-13.9c-2.57-4.51-5.42-8.84-8.44-13.05c-6.06-8.39-13.03-16.1-20.71-22.95
			c-7.71-6.81-16.16-12.76-25.21-17.57c-9.05-4.8-18.65-8.53-28.56-11.12c-19.84-5.14-40.77-5.95-61.21-3.49
			c-5.09,0.64-10.13,1.49-15.09,2.67c-4.95,1.2-9.8,2.72-14.49,4.61c-9.36,3.77-18.03,9.15-25.07,16.21
			c-7.08,7.02-12.37,15.73-15.76,25.18c-3.38,9.47-4.85,19.65-4.93,29.84c-0.04,10.21,1.28,20.46,3.62,30.48
			c2.36,10.02,5.75,19.83,10.08,29.2c4.32,9.37,9.51,18.38,15.78,26.54c1.55,2.05,3.21,4.02,4.89,5.95c1.7,1.9,3.53,3.78,5.33,5.66
			c3.64,3.73,7.36,7.39,11.21,10.9c7.71,6.99,15.9,13.5,24.71,19.01c4.41,2.74,8.99,5.21,13.72,7.31c2.37,1.04,4.78,1.98,7.24,2.77
			c2.44,0.76,5.02,1.44,7.42,1.67l0.09,0.01c0.54,0.05,0.94,0.53,0.89,1.08c-0.05,0.53-0.51,0.92-1.03,0.89
			c-2.85-0.15-5.4-0.75-8.01-1.43c-2.58-0.71-5.12-1.57-7.6-2.54c-4.98-1.93-9.73-4.38-14.35-7.02
			c-9.21-5.35-17.76-11.72-25.85-18.6c-4.03-3.46-7.94-7.05-11.75-10.73c-1.88-1.87-3.77-3.71-5.62-5.7
			c-1.82-1.98-3.59-4.01-5.26-6.11c-6.72-8.38-12.33-17.58-16.99-27.22c-4.65-9.65-8.34-19.75-10.97-30.16
			c-2.62-10.4-4.2-21.13-4.25-31.96c-0.03-10.81,1.4-21.77,4.99-32.17c3.6-10.36,9.36-20.16,17.21-27.99
			c7.79-7.89,17.34-13.85,27.44-17.97c5.06-2.07,10.26-3.72,15.52-5.02c5.27-1.27,10.6-2.2,15.94-2.89c5.36-0.64,10.69-1,16.05-1.21
			c5.36-0.18,10.73-0.12,16.1,0.17c10.74,0.56,21.44,2.28,31.84,5.14c20.82,5.65,40.25,16.54,55.8,31.37
			c3.9,3.69,7.57,7.61,11.01,11.72c3.42,4.12,6.61,8.43,9.55,12.89c2.94,4.46,5.6,9.1,8.01,13.85c2.4,4.78,4.52,9.62,6.21,14.79
			c0.24,0.73-0.16,1.52-0.89,1.76c-0.71,0.23-1.46-0.13-1.73-0.81L485.35,525.07z"/>
	</g>
	<path class="st7" d="M493.16,972.62c0,0-8.88,108.75,83.73,108.91c83.04,0.15,99.88-63.78,101.71-103.56"/>
	<path class="st7" d="M462.23,914.14c0,0-22.38-41.34-79.1-16.07c-32.8,10.5-32.8-28.62-32.8-28.62s-0.4-37.28,48.18-48.22
		c28.7-6.47,45.05,0,45.05,0"/>
	<path class="st7" d="M366.96,734.36c0,0-39.41,54.8-11.1,115.73"/>
	<path class="st7" d="M361.13,723.08c0,0-56.93-12.94-62.06,39.37s28.38,61.53,49.46,66.58"/>
	<path class="st7" d="M356.58,689.46c0,0-88.26-6.48-107.74,72.99s75.86,104.92,101.49,107"/>
	<path class="st7" d="M329.84,920.91c0,0,73.8,6.09,84.05,92.54c-19.48,19.79-72.79,68.08-72.79,68.08s-23.58-95.92-76.89-86.3
		c-2.05-7.66-2.05-7.66-2.05-7.66L329.84,920.91z"/>
	<path class="st7" d="M284.61,965.46c0,0,57.65,28.57,80.14,94.46"/>
	<path class="st7" d="M285.5,966.5c0,0,55.77,27.53,78.25,93.43"/>
	<g>
		<path d="M339.97,1072.6c-3.82,4.8-7.41,10.05-10.67,15.37c-3.27,5.34-6.24,10.86-8.79,16.55c-2.54,5.69-4.69,11.56-6.1,17.57
			c-1.41,6-2.13,12.16-1.67,18.21c0.43,6.05,2.23,11.93,5.34,17.06c1.56,2.56,3.4,4.96,5.53,7.1c2.13,2.14,4.48,4.08,6.99,5.82
			c5.06,3.43,10.69,6.09,16.54,8.16c5.87,2.06,11.95,3.57,18.1,4.73c6.16,1.16,12.4,1.92,18.69,2.45l9.45,0.76l9.47,0.44
			c12.63,0.41,25.27,0.19,37.87-0.73c25.2-1.81,50.16-6.48,74.38-13.66c12.12-3.58,24.04-7.81,35.75-12.56
			c5.87-2.35,11.66-4.89,17.43-7.46c5.75-2.64,11.48-5.31,17.16-8.12c11.37-5.58,22.52-11.6,33.97-17.32
			c2.87-1.42,5.76-2.82,8.73-4.13c1.49-0.67,2.97-1.3,4.42-1.91l4.4-1.85c5.89-2.46,11.81-4.85,17.77-7.14
			c23.85-9.16,48.26-16.95,73.18-22.87c24.91-5.93,50.36-9.98,76.1-11.2c25.7-1.15,51.79,0.53,77.06,6.95
			c12.63,3.15,24.98,7.62,36.76,13.35c2.98,1.37,5.83,2.98,8.72,4.53c1.46,0.75,2.85,1.63,4.25,2.48l4.21,2.55l4.09,2.75
			c1.35,0.93,2.75,1.8,4.04,2.81c2.61,1.99,5.32,3.86,7.8,6.02c20.39,16.63,36.7,37.97,48.33,61.31
			c5.85,11.67,10.7,23.78,14.67,36.13c0.99,3.09,2.01,6.15,2.85,9.36l1.32,4.76l0.66,2.38c0.1,0.4,0.23,0.79,0.31,1.19l0.2,1.23
			l1.55,9.82c0.12,0.82,0.27,1.64,0.37,2.45l0.24,2.43l0.48,4.86l0.48,4.86c0.17,1.62,0.17,3.25,0.26,4.87l0.39,9.74
			c-0.09,6.49,0.05,12.98-0.43,19.44l-0.26,4.85l-0.13,2.42l-0.22,2.41l-0.91,9.65c-0.13,1.61-0.37,3.21-0.58,4.81l-0.64,4.8
			l-0.64,4.8c-0.22,1.6-0.52,3.18-0.78,4.77l-1.65,9.52l-1.95,9.46c-0.61,3.16-1.37,6.29-2.12,9.41c-0.77,3.12-1.44,6.27-2.28,9.37
			c-3.19,12.45-6.92,24.73-10.98,36.89c-4.15,12.13-8.61,24.13-13.42,35.99c-4.86,11.84-10.05,23.53-15.51,35.08
			c-5.51,11.53-11.27,22.93-17.38,34.15c-3.03,5.62-6.2,11.17-9.39,16.7c-3.24,5.51-6.52,10.96-10.01,16.38
			c-0.75,1.16-2.29,1.5-3.46,0.75c-1.12-0.72-1.47-2.2-0.82-3.34l0.02-0.04c3.12-5.43,6.13-11.03,9.05-16.63
			c2.92-5.61,5.82-11.23,8.59-16.92c5.59-11.35,10.94-22.82,15.97-34.42c10.15-23.15,19.11-46.81,26.73-70.83
			c1.8-6.04,3.71-12.04,5.33-18.12c0.82-3.04,1.74-6.05,2.49-9.1l2.3-9.15c0.78-3.05,1.39-6.13,2.09-9.19
			c0.69-3.06,1.38-6.13,1.93-9.21l1.77-9.24l1.47-9.28c0.23-1.55,0.52-3.09,0.72-4.64l0.58-4.66l0.58-4.65
			c0.19-1.55,0.41-3.1,0.52-4.66l0.81-9.33l0.2-2.33l0.1-2.34l0.21-4.67c0.41-6.23,0.22-12.45,0.27-18.67l-0.45-9.3
			c-0.1-1.55-0.1-3.11-0.27-4.64l-0.46-4.62l-0.46-4.62l-0.23-2.31c-0.09-0.76-0.23-1.51-0.34-2.26l-1.42-9.01l-0.18-1.13
			c-0.07-0.37-0.2-0.74-0.3-1.11l-0.62-2.21l-1.24-4.42c-0.77-2.94-1.77-5.91-2.72-8.87c-3.84-11.83-8.36-23.42-13.88-34.49
			c-5.52-11.06-11.96-21.64-19.42-31.42c-7.46-9.78-15.96-18.74-25.38-26.61c-2.29-2.05-4.81-3.81-7.23-5.71
			c-1.2-0.96-2.5-1.78-3.75-2.67l-3.79-2.62c-5.2-3.28-10.46-6.47-15.99-9.2c-10.99-5.57-22.59-10-34.57-13.2
			c-11.97-3.22-24.25-5.47-36.68-6.66c-12.42-1.2-24.96-1.58-37.49-1.17c-25.08,0.81-50.1,4.43-74.72,9.86
			c-24.64,5.43-48.89,12.72-72.64,21.4c-5.94,2.17-11.84,4.44-17.72,6.78l-4.41,1.77c-1.49,0.59-2.94,1.19-4.36,1.8
			c-2.86,1.21-5.72,2.54-8.56,3.89c-11.38,5.46-22.71,11.32-34.23,16.78c-22.96,11.12-46.77,20.66-71.31,27.89
			c-24.54,7.2-49.84,11.86-75.36,13.61c-12.76,0.89-25.56,1.08-38.33,0.63l-9.58-0.46l-9.56-0.75c-6.37-0.53-12.77-1.29-19.1-2.48
			c-6.33-1.18-12.62-2.73-18.76-4.87c-6.12-2.16-12.09-4.95-17.56-8.65c-2.72-1.88-5.29-3.99-7.64-6.35
			c-2.35-2.36-4.41-5.03-6.16-7.9c-3.5-5.73-5.49-12.35-6.03-18.96c-0.55-6.63,0.18-13.25,1.63-19.62
			c1.45-6.38,3.66-12.51,6.25-18.44c2.6-5.93,5.63-11.64,8.96-17.16c3.35-5.53,6.9-10.83,10.96-16c0.85-1.09,2.42-1.28,3.51-0.42
			c1.09,0.85,1.28,2.42,0.42,3.51l-0.01,0.01L339.97,1072.6z"/>
	</g>
	<g>
		<path d="M265.09,997.58c-5.48,2.09-11.02,4.6-16.41,7.21c-5.4,2.64-10.75,5.39-15.99,8.36c-10.52,5.86-20.72,12.31-30.57,19.26
			c-19.74,13.86-37.91,29.93-54.28,47.67c-8.12,8.93-15.7,18.35-22.83,28.1c-3.42,4.98-6.96,9.88-10.08,15.05l-2.42,3.83l-1.2,1.92
			l-1.12,1.97l-4.49,7.88c-5.7,10.65-11.06,21.53-15.4,32.83l-1.68,4.22l-0.84,2.11l-0.74,2.15l-2.95,8.59
			c-1.04,2.84-1.83,5.77-2.68,8.68l-2.53,8.73l0,0.01c-0.03,0.12-0.16,0.18-0.27,0.15c-0.12-0.03-0.18-0.15-0.15-0.27l2.39-8.78
			c0.81-2.92,1.55-5.87,2.55-8.74l2.82-8.66l0.71-2.16l0.81-2.13l1.62-4.26c4.18-11.41,9.39-22.41,14.95-33.21l4.39-7.99l1.1-2
			l1.18-1.95l2.37-3.9c3.07-5.26,6.55-10.24,9.91-15.31c7.02-9.93,14.51-19.54,22.56-28.68c16.22-18.15,34.32-34.66,54.05-48.99
			c9.84-7.19,20.06-13.87,30.63-19.98c5.26-3.09,10.65-5.97,16.1-8.74c5.48-2.75,10.95-5.35,16.76-7.67
			c1.28-0.51,2.74,0.11,3.25,1.39c0.51,1.28-0.11,2.74-1.39,3.25c-0.01,0-0.02,0.01-0.02,0.01L265.09,997.58z"/>
	</g>
	<g>
		<path d="M279.95,997.49c-4.03,2.01-8.12,4.3-12.1,6.65c-3.99,2.36-7.92,4.82-11.81,7.36c-7.77,5.08-15.33,10.48-22.69,16.15
			c-14.73,11.33-28.61,23.76-41.58,37.07c-12.98,13.3-25.01,27.53-35.95,42.56c-10.92,15.04-20.72,30.9-29.29,47.41
			c-4.25,8.27-8.25,16.67-11.89,25.23c-3.61,8.57-6.99,17.24-9.99,26.05c-0.78,2.19-1.45,4.42-2.18,6.63
			c-0.72,2.21-1.44,4.42-2.07,6.66l-1.97,6.7l-1.79,6.75l-0.89,3.38l-0.81,3.4l-1.6,6.8c-0.93,4.56-1.98,9.1-2.76,13.69l-1.24,6.87
			l-1.07,6.9l-0.53,3.45l-0.44,3.47l-0.88,6.93c-0.99,9.26-1.84,18.55-2.24,27.86l-0.32,6.98l-0.14,6.99
			c-0.15,4.66-0.06,9.32-0.04,13.99c-0.01,2.33,0.07,4.66,0.15,6.99l0.22,6.99c0.05,2.33,0.28,4.66,0.33,6.99
			c0.03,2.34-0.07,4.68-0.6,7.06c-1.62-4.57-1.64-9.28-1.94-13.95l-0.29-7.02c-0.1-2.34-0.2-4.68-0.21-7.03
			c-0.06-4.69-0.19-9.37-0.09-14.06l0.08-7.03l0.26-7.03c0.32-9.37,1.08-18.73,1.99-28.06l0.82-6.99l0.41-3.49l0.5-3.48l1.01-6.97
			l1.18-6.94c6.48-36.97,18.21-73.13,35.38-106.6c8.56-16.74,18.37-32.85,29.33-48.13c10.98-15.27,23.06-29.75,36.12-43.29
			c13.1-13.5,27.12-26.12,42.02-37.62c7.44-5.76,15.09-11.25,22.97-16.42c3.94-2.59,7.93-5.09,11.98-7.5
			c4.07-2.41,8.13-4.71,12.47-6.88c1.23-0.62,2.74-0.12,3.35,1.12c0.62,1.23,0.12,2.74-1.12,3.35l0,0L279.95,997.49z"/>
	</g>
	<path class="st7" d="M406.28,1355.75c-154.69,36.93-201.52-6.5-219.98-26.25c-111.74-123.44,87.12-334.9,87.12-334.9
		S-5.91,1196.18,165.8,1371.47c65.61,62.95,222.38,6.17,338.52-70.36c63.42-39.5,242.74-125.91,294,61.72
		c10.92,43.2-6.15,117.27-55.36,133.32"/>
	<path class="st7" d="M838.46,1528.24c0,0,13.17-24.69,17.28-45.67c29.73-139.49-34.86-248.12-133.75-269.1
		c-98.89-20.98-211.73,34.56-315.7,94.19s-189.22,26.09-199.47-41.11c-26.17-127.14,83.31-267.42,83.31-267.42"/>
	<g>
		<path class="st8" d="M588.95,576.92"/>
	</g>
	<g>
		<path class="st8" d="M565.36,524.63"/>
	</g>
	<path class="st7" d="M545.74,474.89"/>
	<g>
		<path class="st8" d="M905.67,869.45"/>
	</g>
	<g>
		<path d="M356.01,928.56c-0.4-2.74-0.3-5.47,0.14-8.19c0.45-2.71,1.21-5.4,2.4-7.93c1.2-2.51,2.63-4.98,4.47-7.11
			c0.85-1.14,1.89-2.08,2.87-3.12c1.01-0.99,2.13-1.85,3.2-2.78c1.05-0.91,2.63-0.8,3.54,0.25c0.91,1.05,0.8,2.63-0.25,3.54
			c-0.07,0.06-0.15,0.12-0.22,0.17l-0.25,0.17c-1.02,0.69-2.11,1.33-3.1,2.08c-0.95,0.79-2,1.5-2.85,2.41
			c-1.87,1.67-3.39,3.68-4.76,5.8c-1.36,2.13-2.37,4.5-3.11,6.96c-0.72,2.45-1.15,5.08-1.1,7.63l0,0.04c0.01,0.27-0.21,0.5-0.48,0.5
			C356.26,928.99,356.05,928.8,356.01,928.56z"/>
	</g>
	<path class="st7" d="M406.28,981.82c0,0,40.79,13.35,62.13-21.31"/>
	<g>
		<path d="M383.66,895.62c2.48,0.63,4.68,1.37,6.94,2.2c2.24,0.84,4.45,1.73,6.61,2.72c4.34,1.96,8.52,4.22,12.54,6.73
			c8.05,5.01,15.39,11.13,21.72,18.14c6.35,7,11.58,14.94,15.64,23.4c3.99,8.5,6.83,17.48,8.56,26.65c0.02,0.09-0.04,0.18-0.14,0.2
			c-0.09,0.02-0.18-0.04-0.2-0.13c-2.1-9.06-5.29-17.85-9.57-26.04c-4.35-8.16-9.79-15.7-16.24-22.24
			c-6.44-6.55-13.78-12.17-21.74-16.68c-3.97-2.26-8.09-4.27-12.32-5.97c-2.11-0.87-4.25-1.63-6.41-2.33
			c-2.13-0.69-4.39-1.33-6.44-1.76l-0.09-0.02c-1.35-0.28-2.22-1.61-1.94-2.96c0.28-1.35,1.61-2.22,2.96-1.94
			C383.58,895.6,383.63,895.61,383.66,895.62z"/>
	</g>
	<path class="st7" d="M430.29,907.33c0,0,23,10.84,27.9,65.29"/>
	<path class="st7" d="M408.87-64"/>
	<path class="st4" d="M824,567"/>
	<path class="st4" d="M828,562"/>
	<path class="st7" d="M792,665c0,0,56.67-5.55,86.5,58.5c34,73-36.5,111.5-55.5,115.5c0,0-38.76,6.7-43.13,11.1
		c0,0,26.62,36.37,2.63,83.77c-29.04,57.4-148.72,42.59-148.72,42.59"/>
	<path class="st0" d="M883,773"/>
</g>
</svg>
